<mxfile host="app.diagrams.net" modified="2023-04-19T17:10:40.725Z" agent="Mozilla/5.0 (Windows NT 10.0; Win64; x64) AppleWebKit/537.36 (KHTML, like Gecko) Chrome/112.0.0.0 Safari/537.36" version="21.2.0" etag="8Mvs1Sl_UW9SHMYxoI6g" type="github">
  <diagram name="PÃ¡gina-1" id="h5rL55DhT8JQG1Hgufh5">
    <mxGraphModel>
      <root>
        <mxCell id="0" />
        <mxCell id="1" parent="0" />
      </root>
    </mxGraphModel>
  </diagram>
</mxfile>
